# xmcd
#
# Track frame offsets:
#	150
#	19250
#	38598
#	52682
#	70090
#	87658
#	101876
#	120426
#	134953
#	150768
#	169015
#	190827
#	208724
#	223082
#	236622
#	249517
#	264246
#	279151
#	294155
#	313504
#	328687
#	342266
#
# Disc length: 4754 seconds
#
# Revision: 1
# Processed by: cddbd v1.5.2PL0 Copyright (c) Steve Scherf et al.
# Submitted via: audiograbber 1.83.01
#
DISCID=37129016
DTITLE=Miranda Lambert - The Best Of Miranda Lambert
DYEAR=1900
DGENRE=Country
TTITLE0=Me And Charlie Talking
TTITLE1=Bring Me Down
TTITLE2=Kerosene
TTITLE3=New Strings
TTITLE4=Love Is Looking For You
TTITLE5=Crazy Ex-Girlfriend
TTITLE6=Famous In A Small Town
TTITLE7=Gunpowder and Lead
TTITLE8=More Like Her
TTITLE9=Dead Flowers
TTITLE10=White Liar
TTITLE11=The House That Built Me
TTITLE12=Only Prettier
TTITLE13=Heart Like Mine
TTITLE14=Love Song
TTITLE15=Hell On Heels (Pistol Annies)
TTITLE16=Takin' Pills (Pistol Annies)
TTITLE17=Baggage Claim
TTITLE18=Over You
TTITLE19=Fastest Girl In Town
TTITLE20=Mama's Broken Heart
TTITLE21=Coal Miner's Daughter (Feat. Loretta Lynn and Sheryl Crow)
EXTD=
EXTT0=
EXTT1=
EXTT2=
EXTT3=
EXTT4=
EXTT5=
EXTT6=
EXTT7=
EXTT8=
EXTT9=
EXTT10=
EXTT11=
EXTT12=
EXTT13=
EXTT14=
EXTT15=
EXTT16=
EXTT17=
EXTT18=
EXTT19=
EXTT20=
EXTT21=
PLAYORDER=
